<?xml version="1.0" standalone="no"?>
<!DOCTYPE svg PUBLIC "-//W3C//DTD SVG 20010904//EN"
 "http://www.w3.org/TR/2001/REC-SVG-20010904/DTD/svg10.dtd">
<svg version="1.0" xmlns="http://www.w3.org/2000/svg"
 width="700.000000pt" height="700.000000pt" viewBox="0 0 700.000000 700.000000"
 preserveAspectRatio="xMidYMid meet">
<metadata>
Created by potrace 1.11, written by Peter Selinger 2001-2013
</metadata>
<g transform="translate(0.000000,700.000000) scale(0.100000,-0.100000)"
fill="#000000" stroke="none">
<path d="M4702 5374 c-95 -46 -190 -135 -233 -218 l-33 -63 51 -114 c186 -419
361 -925 453 -1314 l37 -160 -29 -109 c-118 -440 -378 -1013 -655 -1445 -30
-46 -53 -84 -51 -85 2 -2 23 -10 48 -19 69 -25 183 -37 253 -26 113 18 111 17
223 220 217 392 346 659 439 901 l52 137 47 -127 c63 -168 146 -358 246 -567
86 -180 290 -571 322 -617 30 -43 137 -72 242 -65 95 6 159 31 150 59 -3 9
-50 111 -106 225 -151 313 -420 893 -559 1207 l-124 279 49 141 c128 373 376
936 667 1517 l58 117 -40 32 c-58 46 -153 86 -236 99 -116 18 -107 23 -164
-91 -128 -254 -347 -781 -515 -1238 -43 -118 -80 -205 -82 -195 -22 132 -190
770 -282 1070 -60 199 -149 478 -153 481 -1 2 -35 -13 -75 -32z"/>
<path d="M3760 5367 c-120 -38 -211 -234 -390 -842 -156 -532 -277 -803 -561
-1258 -55 -88 -98 -166 -95 -172 6 -16 68 -45 96 -45 11 0 41 5 66 11 40 10
52 21 103 88 167 220 356 515 494 771 49 91 86 156 83 145 -34 -122 -115 -733
-150 -1131 -34 -384 -73 -1114 -60 -1135 2 -3 32 -15 66 -25 46 -13 96 -18
184 -19 119 0 122 1 190 35 l69 35 0 65 c-1 36 -6 190 -13 343 -31 705 7 1797
94 2727 14 151 26 299 27 329 l2 55 -55 17 c-63 20 -100 22 -150 6z"/>
<path d="M2078 5350 c-88 -47 -158 -180 -263 -503 -211 -645 -385 -1003 -789
-1624 -36 -56 -66 -112 -66 -123 0 -32 53 -80 87 -79 58 1 90 23 159 109 187
231 337 462 554 855 39 72 69 121 66 110 -26 -95 -66 -356 -86 -555 -32 -319
-42 -554 -47 -1152 l-5 -627 53 -16 c141 -41 267 -39 364 6 77 36 78 38 60
180 -116 955 -68 2201 124 3214 19 99 25 154 19 162 -5 7 -33 23 -61 38 -61
30 -118 32 -169 5z"/>
</g>
</svg>
